<svg xmlns="http://www.w3.org/2000/svg" xmlns:xlink="http://www.w3.org/1999/xlink" viewBox="0 0 826.84 826.84"><defs><style>.cls-1{opacity:0;fill:url(#linear-gradient);}.cls-2{fill:url(#linear-gradient-2);}.cls-3{fill:#fff;}</style><linearGradient id="linear-gradient" x1="413.42" x2="413.42" y2="826.84" gradientUnits="userSpaceOnUse"><stop offset="0" stop-color="#468de5"/><stop offset="1" stop-color="#487ce5"/></linearGradient><linearGradient id="linear-gradient-2" x1="413.42" y1="32.42" x2="413.42" y2="794.43" gradientUnits="userSpaceOnUse"><stop offset="0" stop-color="#64a9f4"/><stop offset="1" stop-color="#487ce5"/></linearGradient></defs><title>Asset 4</title><g id="Layer_2" data-name="Layer 2"><g id="Layer_1-2" data-name="Layer 1"><circle class="cls-1" cx="413.42" cy="413.42" r="413.42"/><circle class="cls-2" cx="413.42" cy="413.42" r="381.01"/><path class="cls-3" d="M589.23,465.52c-40.75-37.35-81.12-75.19-126.41-107.15-15.19-10.72-26.35-9.28-38.78,4.44-8.6,9.49-17.78,18.23-28.69,24.94-14.21,8.74-29.49,13.35-46.23,9.6-15-3.35-22.78-12.46-18.57-26.25,9.41-30.79,22.19-60.27,44.24-84.67l17.45-14.21c-56-23.6-67.24-24.33-111.25-8.6-9.39,3.36-15.65,5.85-6.56,18,7.26,9.7,15.87,19.45,19.22,31.88,13.83,24.93,20.08,51.83,20.59,80.14.54,29.56-3.93,58.52-10.8,87.2-.8,3.35-4.34,10,.11,10.17,14.26.45,24,6.17,30.79,18.44.52.94,5.43-.29,8.21-.91,13.88-3.14,24.23,1.37,30.09,14.4,2.53,5.63,4.73,8.53,11.87,6.62,12.29-3.28,22,1.51,28.64,12.41,1.78,2.94,3.1,6,7.73,4.92,16-3.86,25.91,4.16,33.93,16.88,5.11,8.1,12.85,11.45,21.13,4.94,8.75-6.87,8.94-15.83,2.22-24.53-2.35-3-5.79-5.21-8.56-8-2.57-2.54-4.58-6-2.28-9.16,3.18-4.4,7.17-1.69,10.16.71,5.72,4.58,11,9.69,16.61,14.45,8.09,6.9,16.66,8.93,24.62.29,7.73-8.39,4-16.23-2.76-23.21-5.09-5.28-10.58-10.18-15.53-15.58-2.19-2.39-4.9-5.53-1.79-9,3.37-3.81,6.38-.55,8.87,1.35,8.54,6.54,16.74,13.53,25.29,20.07,8.08,6.17,16.45,6.87,23.4-1.46,6.63-7.94,4-15.32-2.92-21.92-6-5.71-12-11.48-17.64-17.6-2.07-2.26-5.26-5.42-1.66-8.88,3.36-3.23,6.42-.72,9,1.5,8.16,7,16,14.35,24.32,21.24,8.1,6.74,17.06,8.7,24.74,0C599.25,480.77,596.46,472.15,589.23,465.52Z"/><path class="cls-3" d="M540.66,278c-23.76-1.51-47.63.26-71.24-5.49-29-7.08-56.32-3.58-78.47,19.25-1.65,1.7-4,2.74-6,4.09-20.36,20.39-23.64,49.86-38.73,73.19-4.81,7.43.78,14.1,10.21,14.76,11.42.8,22.3-.48,32.25-7.23,10.61-7.2,19.81-15.88,28.74-25,20.23-20.57,27.72-21.08,51.34-3.83,42,30.64,80.84,64.82,117.61,101.48,3.53,3.52,6.77,10.1,12.94,7.14,5.14-2.47,3.24-8.83,2.89-13.45C597.57,382.09,587,323.35,540.66,278Z"/><path class="cls-3" d="M667.93,404.58a139.9,139.9,0,0,1-1.62-19,265,265,0,0,0-7.77-38c-10.32-34.39-25.29-66.58-47.22-95A164.54,164.54,0,0,0,581.54,223c-9.54-3.71-17.36,3.11-32.37,17.56-.7.68-1.45,1.3-2.19,1.93-17,14.64-17,14.64-.06,26.71C570.16,284.28,583,307,593.08,331.84,609.37,372,615.14,414,614.09,457c-.3,12.36,3.38,13.67,14.38,10.49,20.39-5.9,30.08-8.61,35-15.78C667.12,438,668.65,422,667.93,404.58Z"/><path class="cls-3" d="M355.1,517.67c-6-3.25-11.57-1.69-15.48,3.77-6.26,8.73-12.74,17.39-18,26.72-5.7,10.14,1.55,21.38,14.47,21.46.51-.14,3,0,4.1-1.24,10.08-11.22,20.35-22.57,24.42-37.5C366.49,524,360.25,520.46,355.1,517.67Z"/><path class="cls-3" d="M389.15,537.94a14.11,14.11,0,0,0-10.86,6.51q-7.47,10.75-14.55,21.78c-4.85,7.59-2.75,13.64,4.34,18.69,7.28,5.17,13.79,4.44,19-2.58a219.33,219.33,0,0,0,15.31-23C407.77,549.74,400.08,537.81,389.15,537.94Z"/><path class="cls-3" d="M435.05,558.9c-4.81-2.82-10.2-2.22-13.42,1.88a207.25,207.25,0,0,0-17.17,25.45c-3.1,5.46.36,10.34,4.81,14s9.9,6.62,14.74,2.94c10.3-7.84,15.75-19.46,21.06-29.27C445.15,565.21,440.15,561.9,435.05,558.9Z"/><path class="cls-3" d="M304.68,502.43c-6.56-.65-24.95,22.9-24,30.75,1.05,9,7.73,13.46,16,14.31,7,.72,24.19-22.05,23.79-32C319,508,313.08,503.27,304.68,502.43Z"/><path class="cls-3" d="M275.85,311.1c-2.59-4.1-5.64-8-7.7-12.34-14-29.61-36.58-47.1-69.76-50.2-8.22-.77-16.31-2.87-24.47-4.31-4.74-.84-10.17-3-13.71,1.46-3.38,4.27-.18,8.25,2,12,19.65,22.54,33.72,69.91,35.63,125.86a169.4,169.4,0,0,1,1,25.23c-.82,31.34-5.12,61.75-16.68,90.32-4.84,13.31-10.62,24.5-17.07,33-2.19,4.22-3.44,8.77-.55,13.51,4.58,7.51,12.06,4.16,18.68,3.16,19.3-2.91,38.55-6.45,57.95-8.43,9.92-1,15.91-5.6,21-13.38,21.07-32.1,32.83-67.22,36.67-105.43C302.85,382.07,292,346.13,275.85,311.1Z"/></g></g></svg>